<svg width="19" height="20" viewBox="0 0 19 20" fill="none" xmlns="http://www.w3.org/2000/svg">
<path d="M10.5055 6.75635C6.73266 7.79087 3.96049 9.74403 2.24531 12.4954C0.53012 15.2467 2.17895 17.0402 4.93236 16.808C7.68577 16.5758 12.2969 15.0166 15.0503 12.9599C17.8037 10.9031 17.671 9.44345 17.2066 8.3819C16.7421 7.32034 14.619 5.62842 10.5055 6.75635Z" fill="#FAB13D"/>
<path fill-rule="evenodd" clip-rule="evenodd" d="M1.90925 12.2859C3.68619 9.4355 6.5498 7.43047 10.4007 6.37455C14.6433 5.21124 17.0031 6.92951 17.5691 8.22319C17.8249 8.80792 18.005 9.54408 17.7103 10.4234C17.4213 11.2857 16.6957 12.2247 15.287 13.2769C13.8696 14.3358 11.9906 15.2557 10.1276 15.9397C8.26509 16.6234 6.3881 17.0824 4.96547 17.2024C3.51568 17.3247 2.24561 16.9226 1.59022 15.9997C0.919167 15.0546 1.00665 13.7338 1.90925 12.2859ZM2.24516 12.4953C3.96034 9.74398 6.73251 7.79082 10.5054 6.7563C14.6189 5.62837 16.742 7.32029 17.2064 8.38184C17.6708 9.4434 17.8036 10.9031 15.0501 12.9598C12.2967 15.0166 7.68562 16.5757 4.93221 16.808C2.1788 17.0402 0.529969 15.2467 2.24516 12.4953Z" fill="#B7690D"/>
<path d="M5.20538 9.91914C3.65549 10.8676 2.67066 12.0968 2.26044 13.5458C1.85022 14.9948 2.81735 15.5822 4.01591 15.1233C5.21447 14.6643 5.49114 13.2593 6.45423 11.9863C7.41733 10.7133 8.45914 10.2306 8.45914 9.53252C8.45914 8.99389 6.89521 8.88502 5.20538 9.91914Z" fill="#FCC66F"/>
<path fill-rule="evenodd" clip-rule="evenodd" d="M4.62022 11.3271C4.78221 11.4739 4.79452 11.7243 4.64771 11.8863C4.05031 12.5455 3.79398 13.1126 3.59632 13.5499C3.57222 13.6033 3.54898 13.6547 3.52611 13.7041C3.43427 13.9024 3.19899 13.9888 3.00061 13.897C2.80222 13.8051 2.71586 13.5698 2.8077 13.3715C2.82899 13.3255 2.85123 13.2761 2.87487 13.2237C3.07542 12.7787 3.37709 12.1094 4.0611 11.3546C4.2079 11.1926 4.45823 11.1803 4.62022 11.3271Z" fill="#FFDFAD"/>
<path fill-rule="evenodd" clip-rule="evenodd" d="M3.51986 16.733C6.55874 16.1225 10.5435 14.5982 13.0973 12.6905C16.1723 10.3936 16.0241 8.76341 15.5054 7.57787C15.3723 7.27355 15.1171 6.92286 14.7336 6.59094C16.1381 6.96658 16.942 7.77669 17.2068 8.3819C17.6712 9.44346 17.8039 10.9031 15.0505 12.9599C12.2971 15.0166 7.68599 16.5758 4.93259 16.808C4.41822 16.8514 3.9424 16.8241 3.51986 16.733Z" fill="#EDA024"/>
<path d="M7.58635 13.0925C6.84326 11.6329 4.64496 10.8699 3.63869 10.6708C4.01024 10.0605 4.76659 9.554 5.09833 9.37708C6.7172 10.3856 7.43154 12.2742 7.58635 13.0925Z" fill="#D08814"/>
<path d="M10.9281 11.7769C10.0603 9.80189 8.05917 8.26534 7.0529 8.0663C7.69627 7.52767 8.95051 7.24077 9.28224 7.06384C11.1375 8.0663 10.7733 10.9586 10.9281 11.7769Z" fill="#A56112"/>
<path d="M14.1895 9.50259C13.3816 7.48272 12.3977 7.05885 11.5313 6.50978C11.9901 6.31568 13.1729 6.36084 13.5462 6.31568C14.3242 7.39294 14.3242 8.26075 14.1895 9.50259Z" fill="#9C5807"/>
<path fill-rule="evenodd" clip-rule="evenodd" d="M4.94389 9.39353C4.96694 9.28668 5.07224 9.21875 5.17909 9.24179C5.61781 9.33642 6.17469 9.69333 6.68562 10.2893C7.20108 10.8905 7.6825 11.7488 7.96272 12.8736C7.98915 12.9796 7.92459 13.087 7.81852 13.1135C7.71246 13.1399 7.60505 13.0753 7.57863 12.9693C7.31274 11.902 6.85902 11.0996 6.38512 10.5469C5.90669 9.98888 5.41997 9.69869 5.09563 9.62873C4.98878 9.60568 4.92085 9.50038 4.94389 9.39353Z" fill="#FFDFAC"/>
<path fill-rule="evenodd" clip-rule="evenodd" d="M9.38845 7.02615C9.45055 6.93621 9.57382 6.91364 9.66377 6.97574C10.0235 7.22413 10.435 7.78856 10.7557 8.57302C11.0796 9.36541 11.3202 10.4045 11.3202 11.6272C11.3202 11.7365 11.2316 11.8251 11.1223 11.8251C11.013 11.8251 10.9244 11.7365 10.9244 11.6272C10.9244 10.456 10.6938 9.46775 10.3893 8.72279C10.0815 7.9699 9.70753 7.48698 9.43886 7.30147C9.34891 7.23937 9.32634 7.1161 9.38845 7.02615Z" fill="#FFDFAC"/>
<path fill-rule="evenodd" clip-rule="evenodd" d="M13.5431 6.28726C13.6125 6.2028 13.7372 6.19057 13.8217 6.25995C14.1818 6.55576 14.4366 7.05848 14.5729 7.62326C14.7104 8.19271 14.7338 8.85013 14.6083 9.48128C14.587 9.58849 14.4828 9.65812 14.3756 9.63681C14.2684 9.61551 14.1988 9.51132 14.2201 9.40411C14.334 8.83082 14.3125 8.23143 14.1882 7.71614C14.0627 7.19617 13.8387 6.7862 13.5704 6.56582C13.486 6.49644 13.4737 6.37173 13.5431 6.28726Z" fill="#FFDFAC"/>
<path d="M14.1403 12.0852C14.0894 12.2927 13.9241 12.4304 13.7709 12.3929C13.6178 12.3554 13.5349 12.1568 13.5857 11.9493C13.6366 11.7418 13.8019 11.604 13.9551 11.6416C14.1082 11.6791 14.1911 11.8777 14.1403 12.0852Z" fill="#D48A15"/>
<path d="M12.77 12.6064C12.7287 12.7749 12.5944 12.8868 12.47 12.8563C12.3456 12.8259 12.2782 12.6645 12.3195 12.496C12.3608 12.3274 12.4951 12.2155 12.6195 12.246C12.7439 12.2765 12.8113 12.4378 12.77 12.6064Z" fill="#D48A15"/>
<path d="M13.7502 13.115C13.7089 13.2836 13.5745 13.3955 13.4501 13.365C13.3257 13.3345 13.2584 13.1732 13.2997 13.0046C13.341 12.8361 13.4753 12.7242 13.5997 12.7547C13.7241 12.7851 13.7915 12.9465 13.7502 13.115Z" fill="#D48A15"/>
<path d="M13.4005 11.2304C13.3592 11.3989 13.2249 11.5108 13.1005 11.4804C12.9761 11.4499 12.9087 11.2885 12.95 11.12C12.9913 10.9515 13.1256 10.8395 13.25 10.87C13.3744 10.9005 13.4418 11.0618 13.4005 11.2304Z" fill="#D48A15"/>
<path d="M15.1048 11.6609C15.0635 11.8295 14.9292 11.9414 14.8048 11.9109C14.6804 11.8804 14.613 11.7191 14.6543 11.5505C14.6956 11.382 14.8299 11.2701 14.9543 11.3006C15.0787 11.331 15.1461 11.4924 15.1048 11.6609Z" fill="#D48A15"/>
<path d="M14.622 10.9712C14.5754 11.1613 14.4239 11.2875 14.2836 11.2531C14.1434 11.2187 14.0674 11.0368 14.114 10.8467C14.1605 10.6566 14.312 10.5304 14.4523 10.5648C14.5926 10.5992 14.6686 10.7811 14.622 10.9712Z" fill="#D48A15"/>
<path d="M16.1483 11.0811C16.1017 11.2711 15.9502 11.3973 15.8099 11.363C15.6696 11.3286 15.5937 11.1466 15.6402 10.9566C15.6868 10.7665 15.8383 10.6403 15.9786 10.6747C16.1189 10.709 16.1948 10.891 16.1483 11.0811Z" fill="#D48A15"/>
<path d="M15.7714 10.2683C15.7249 10.4584 15.5734 10.5846 15.4331 10.5502C15.2928 10.5158 15.2168 10.3339 15.2634 10.1438C15.31 9.95376 15.4615 9.82755 15.6018 9.86193C15.742 9.8963 15.818 10.0782 15.7714 10.2683Z" fill="#D48A15"/>
<path d="M17.0883 10.1393C17.0417 10.3293 16.8902 10.4556 16.7499 10.4212C16.6096 10.3868 16.5337 10.2049 16.5802 10.0148C16.6268 9.82473 16.7783 9.69852 16.9186 9.7329C17.0589 9.76728 17.1348 9.94922 17.0883 10.1393Z" fill="#D48A15"/>
<path d="M15.722 11.9125C15.6916 12.0369 15.5924 12.1195 15.5006 12.097C15.4088 12.0745 15.3591 11.9554 15.3896 11.8311C15.4201 11.7067 15.5192 11.6241 15.611 11.6466C15.7028 11.6691 15.7525 11.7881 15.722 11.9125Z" fill="#D48A15"/>
<path d="M14.6895 12.6906C14.659 12.815 14.5598 12.8976 14.468 12.8751C14.3762 12.8526 14.3265 12.7335 14.357 12.6091C14.3875 12.4847 14.4866 12.4021 14.5784 12.4246C14.6702 12.4471 14.7199 12.5662 14.6895 12.6906Z" fill="#D48A15"/>
<path d="M11.8542 14.2092C11.8237 14.3335 11.7246 14.4161 11.6328 14.3936C11.541 14.3711 11.4913 14.2521 11.5217 14.1277C11.5522 14.0033 11.6513 13.9207 11.7432 13.9432C11.835 13.9657 11.8847 14.0848 11.8542 14.2092Z" fill="#D48A15"/>
<path d="M12.9305 13.461C12.9001 13.5854 12.8009 13.668 12.7091 13.6455C12.6173 13.623 12.5676 13.5039 12.5981 13.3795C12.6286 13.2551 12.7277 13.1725 12.8195 13.195C12.9113 13.2175 12.961 13.3366 12.9305 13.461Z" fill="#D48A15"/>
<path d="M12.1349 13.3092C12.1101 13.4104 12.0295 13.4775 11.9549 13.4592C11.8802 13.4409 11.8398 13.3441 11.8646 13.243C11.8894 13.1418 11.97 13.0746 12.0446 13.0929C12.1193 13.1112 12.1597 13.2081 12.1349 13.3092Z" fill="#D48A15"/>
<path d="M12.4877 11.7608C12.4572 11.8852 12.358 11.9678 12.2662 11.9453C12.1744 11.9228 12.1247 11.8037 12.1552 11.6793C12.1857 11.5549 12.2848 11.4723 12.3766 11.4948C12.4684 11.5173 12.5181 11.6364 12.4877 11.7608Z" fill="#D48A15"/>
<path d="M14.0291 10.4687C13.9986 10.5931 13.8995 10.6757 13.8077 10.6532C13.7159 10.6307 13.6662 10.5116 13.6966 10.3872C13.7271 10.2628 13.8262 10.1802 13.9181 10.2027C14.0099 10.2252 14.0596 10.3443 14.0291 10.4687Z" fill="#D48A15"/>
<path d="M15.0456 9.64543C15.0151 9.76982 14.9159 9.85241 14.8241 9.82992C14.7323 9.80742 14.6826 9.68835 14.7131 9.56396C14.7436 9.43958 14.8427 9.35698 14.9345 9.37948C15.0263 9.40198 15.076 9.52105 15.0456 9.64543Z" fill="#D48A15"/>
<path d="M16.1769 9.44548C16.1464 9.56987 16.0473 9.65246 15.9555 9.62996C15.8637 9.60747 15.814 9.48839 15.8444 9.36401C15.8749 9.23963 15.974 9.15703 16.0659 9.17953C16.1577 9.20203 16.2074 9.3211 16.1769 9.44548Z" fill="#D48A15"/>
<path d="M16.8895 9.36394C16.859 9.48832 16.7599 9.57092 16.6681 9.54842C16.5763 9.52592 16.5265 9.40685 16.557 9.28247C16.5875 9.15808 16.6866 9.07549 16.7784 9.09799C16.8702 9.12048 16.92 9.23955 16.8895 9.36394Z" fill="#D48A15"/>
</svg>
